<mxfile host="65bd71144e">
    <diagram id="jR1IEtuBlev8ocRsdkfB" name="Page-1">
        <mxGraphModel dx="1587" dy="1588" grid="1" gridSize="10" guides="1" tooltips="1" connect="1" arrows="1" fold="1" page="1" pageScale="1" pageWidth="850" pageHeight="1100" math="0" shadow="0">
            <root>
                <mxCell id="0"/>
                <mxCell id="1" parent="0"/>
                <mxCell id="2" value="" style="whiteSpace=wrap;html=1;fillColor=#cdeb8b;strokeColor=#CC0000;" parent="1" vertex="1">
                    <mxGeometry x="40" y="-540" width="800" height="620" as="geometry"/>
                </mxCell>
                <mxCell id="53" value="" style="group;sketch=0;fillColor=#f9f7ed;strokeColor=#36393d;" parent="1" vertex="1" connectable="0">
                    <mxGeometry x="53" y="-530" width="775" height="180" as="geometry"/>
                </mxCell>
                <mxCell id="54" value="" style="group" vertex="1" connectable="0" parent="53">
                    <mxGeometry width="775" height="171.42857142857142" as="geometry"/>
                </mxCell>
                <mxCell id="49" value="Carousel Image" style="whiteSpace=wrap;html=1;sketch=0;" parent="54" vertex="1">
                    <mxGeometry y="8.57" width="775" height="161.43" as="geometry"/>
                </mxCell>
                <mxCell id="50" value="&lt;font style=&quot;font-size: 18px&quot;&gt;&amp;lt;&lt;/font&gt;" style="whiteSpace=wrap;html=1;" parent="54" vertex="1">
                    <mxGeometry y="34.71428571428571" width="38.75" height="102.85714285714283" as="geometry"/>
                </mxCell>
                <mxCell id="52" value="&lt;font style=&quot;font-size: 18px&quot;&gt;&amp;gt;&lt;/font&gt;" style="whiteSpace=wrap;html=1;" parent="54" vertex="1">
                    <mxGeometry x="736.25" y="34.71428571428571" width="38.75" height="102.85714285714283" as="geometry"/>
                </mxCell>
                <mxCell id="6" value="&lt;font style=&quot;font-size: 24px&quot;&gt;&lt;b&gt;Flipkart &lt;/b&gt;Homepage UI Clone&lt;/font&gt;" style="text;html=1;align=center;verticalAlign=middle;resizable=0;points=[];autosize=1;strokeColor=none;" parent="1" vertex="1">
                    <mxGeometry x="30" y="-1070" width="330" height="20" as="geometry"/>
                </mxCell>
                <mxCell id="7" value="" style="group" parent="1" vertex="1" connectable="0">
                    <mxGeometry x="40" y="-1000" width="190" height="180" as="geometry"/>
                </mxCell>
                <mxCell id="3" value="Requirements" style="whiteSpace=wrap;html=1;" parent="7" vertex="1">
                    <mxGeometry y="-20" width="190" height="40" as="geometry"/>
                </mxCell>
                <mxCell id="4" value="1. Product Catalogue&lt;br&gt;2. DIfferent Product Search&lt;br&gt;3. Add to cart&lt;br&gt;4. Featured or Trendign Products&lt;br&gt;5. Deals/discounts&lt;br&gt;6. Bestsellers&lt;br&gt;7. About flipkart, categories&lt;br&gt;8. Footer" style="whiteSpace=wrap;html=1;align=left;" parent="7" vertex="1">
                    <mxGeometry y="20" width="190" height="140" as="geometry"/>
                </mxCell>
                <mxCell id="23" value="" style="edgeStyle=orthogonalEdgeStyle;rounded=0;orthogonalLoop=1;jettySize=auto;html=1;" parent="1" source="21" target="22" edge="1">
                    <mxGeometry relative="1" as="geometry"/>
                </mxCell>
                <mxCell id="21" value="" style="whiteSpace=wrap;html=1;fillColor=#f9f7ed;sketch=0;strokeColor=#FF0000;" parent="1" vertex="1">
                    <mxGeometry x="40" y="-690" width="800" height="50" as="geometry"/>
                </mxCell>
                <mxCell id="22" value="&lt;font color=&quot;#000000&quot;&gt;div - nav-wrap&lt;br&gt;position: fixed&lt;br&gt;width: 100vw&lt;/font&gt;" style="whiteSpace=wrap;html=1;fillColor=#FFFFFF;" parent="1" vertex="1">
                    <mxGeometry x="380" y="-780" width="120" height="60" as="geometry"/>
                </mxCell>
                <mxCell id="26" style="edgeStyle=orthogonalEdgeStyle;rounded=0;orthogonalLoop=1;jettySize=auto;html=1;exitX=0.75;exitY=0;exitDx=0;exitDy=0;entryX=0.5;entryY=1;entryDx=0;entryDy=0;" parent="1" source="24" target="27" edge="1">
                    <mxGeometry relative="1" as="geometry">
                        <mxPoint x="635" y="-750" as="targetPoint"/>
                        <Array as="points">
                            <mxPoint x="620" y="-690"/>
                        </Array>
                    </mxGeometry>
                </mxCell>
                <mxCell id="24" value="" style="whiteSpace=wrap;html=1;" parent="1" vertex="1">
                    <mxGeometry x="100" y="-690" width="690" height="50" as="geometry"/>
                </mxCell>
                <mxCell id="27" value="&lt;font color=&quot;#000000&quot;&gt;div - nav&lt;br&gt;width: 100% - 250px&lt;br&gt;&lt;/font&gt;" style="whiteSpace=wrap;html=1;strokeColor=#000000;fillColor=#fff;" parent="1" vertex="1">
                    <mxGeometry x="560" y="-780" width="120" height="60" as="geometry"/>
                </mxCell>
                <mxCell id="34" style="edgeStyle=orthogonalEdgeStyle;rounded=0;orthogonalLoop=1;jettySize=auto;html=1;exitX=0.25;exitY=0;exitDx=0;exitDy=0;" parent="1" source="32" edge="1">
                    <mxGeometry relative="1" as="geometry">
                        <mxPoint x="272.17647058823536" y="-720" as="targetPoint"/>
                    </mxGeometry>
                </mxCell>
                <mxCell id="35" value="&lt;font color=&quot;#000000&quot;&gt;label&lt;br&gt;&lt;span style=&quot;white-space: pre&quot;&gt;&#9;&lt;/span&gt;input - search&lt;br&gt;&lt;span style=&quot;white-space: pre&quot;&gt;&#9;&lt;/span&gt;search icon&lt;br&gt;&lt;/font&gt;" style="whiteSpace=wrap;html=1;strokeColor=#000000;fillColor=#FFFFFF;align=left;" parent="1" vertex="1">
                    <mxGeometry x="210" y="-780" width="120" height="60" as="geometry"/>
                </mxCell>
                <mxCell id="36" value="Login" style="whiteSpace=wrap;html=1;" parent="1" vertex="1">
                    <mxGeometry x="498" y="-685" width="90" height="40" as="geometry"/>
                </mxCell>
                <mxCell id="37" value="More" style="whiteSpace=wrap;html=1;" parent="1" vertex="1">
                    <mxGeometry x="595" y="-685" width="90" height="40" as="geometry"/>
                </mxCell>
                <mxCell id="38" value="Cart" style="whiteSpace=wrap;html=1;" parent="1" vertex="1">
                    <mxGeometry x="692" y="-685" width="90" height="40" as="geometry"/>
                </mxCell>
                <mxCell id="43" value="" style="group" parent="1" vertex="1" connectable="0">
                    <mxGeometry x="200" y="-685" width="290" height="40" as="geometry"/>
                </mxCell>
                <mxCell id="41" value="" style="group" parent="43" vertex="1" connectable="0">
                    <mxGeometry width="290" height="40" as="geometry"/>
                </mxCell>
                <mxCell id="32" value="Searchbar" style="whiteSpace=wrap;html=1;" parent="41" vertex="1">
                    <mxGeometry width="250" height="40" as="geometry"/>
                </mxCell>
                <mxCell id="39" value="" style="whiteSpace=wrap;html=1;" parent="41" vertex="1">
                    <mxGeometry x="250" width="40" height="40" as="geometry"/>
                </mxCell>
                <mxCell id="42" value="" style="line;strokeWidth=2;html=1;fillColor=#FFFFFF;rotation=45;" parent="41" vertex="1">
                    <mxGeometry x="262.2" y="19.34" width="22.27" height="10" as="geometry"/>
                </mxCell>
                <mxCell id="40" value="" style="ellipse;shape=doubleEllipse;whiteSpace=wrap;html=1;aspect=fixed;strokeColor=none;fillColor=#FFFFFF;" parent="41" vertex="1">
                    <mxGeometry x="257.2" y="8.34" width="20" height="20" as="geometry"/>
                </mxCell>
                <mxCell id="45" value="" style="group" parent="1" vertex="1" connectable="0">
                    <mxGeometry x="110" y="-688" width="80" height="748" as="geometry"/>
                </mxCell>
                <mxCell id="31" value="Flipkart logo" style="whiteSpace=wrap;html=1;" parent="45" vertex="1">
                    <mxGeometry width="80" height="25" as="geometry"/>
                </mxCell>
                <mxCell id="44" value="&lt;font style=&quot;font-size: 6px&quot;&gt;Explore Plus&lt;/font&gt;" style="whiteSpace=wrap;html=1;" parent="45" vertex="1">
                    <mxGeometry y="25" width="80" height="20" as="geometry"/>
                </mxCell>
                <mxCell id="46" value="&lt;font color=&quot;#000000&quot;&gt;div - logo-wrap&lt;br&gt;&lt;span style=&quot;white-space: pre&quot;&gt;&#9;&lt;/span&gt;div - logo&lt;br&gt;a -&amp;nbsp;&lt;br&gt;&lt;span style=&quot;white-space: pre&quot;&gt;&#9;&lt;/span&gt;div - Explore Plus&lt;br&gt;&lt;span style=&quot;white-space: pre&quot;&gt;&#9;&lt;/span&gt;div - svg&lt;/font&gt;" style="whiteSpace=wrap;html=1;align=left;fillColor=#FFFFFF;" parent="1" vertex="1">
                    <mxGeometry x="70" y="-810" width="130" height="80" as="geometry"/>
                </mxCell>
                <mxCell id="47" value="" style="edgeStyle=orthogonalEdgeStyle;rounded=0;orthogonalLoop=1;jettySize=auto;html=1;" parent="1" source="31" target="46" edge="1">
                    <mxGeometry relative="1" as="geometry"/>
                </mxCell>
                <mxCell id="89" value="" style="edgeStyle=orthogonalEdgeStyle;rounded=0;orthogonalLoop=1;jettySize=auto;html=1;" edge="1" parent="1" source="48" target="88">
                    <mxGeometry relative="1" as="geometry"/>
                </mxCell>
                <mxCell id="48" value="" style="whiteSpace=wrap;html=1;sketch=0;fillColor=#f9f7ed;strokeColor=#FF0000;glass=0;rounded=0;shadow=0;" parent="1" vertex="1">
                    <mxGeometry x="40" y="-640" width="800" height="100" as="geometry"/>
                </mxCell>
                <mxCell id="55" value="" style="whiteSpace=wrap;html=1;" vertex="1" parent="1">
                    <mxGeometry x="60" y="-630" width="760" height="80" as="geometry"/>
                </mxCell>
                <mxCell id="59" value="" style="group" vertex="1" connectable="0" parent="1">
                    <mxGeometry x="60" y="-630" width="80" height="80" as="geometry"/>
                </mxCell>
                <mxCell id="56" value="" style="whiteSpace=wrap;html=1;" vertex="1" parent="59">
                    <mxGeometry width="80" height="80" as="geometry"/>
                </mxCell>
                <mxCell id="57" value="Category - image" style="whiteSpace=wrap;html=1;" vertex="1" parent="59">
                    <mxGeometry x="10" y="10" width="60" height="50" as="geometry"/>
                </mxCell>
                <mxCell id="58" value="&lt;font style=&quot;font-size: 6px&quot;&gt;Category name&lt;/font&gt;" style="whiteSpace=wrap;html=1;align=center;" vertex="1" parent="59">
                    <mxGeometry x="10" y="60" width="60" height="20" as="geometry"/>
                </mxCell>
                <mxCell id="60" value="" style="group" vertex="1" connectable="0" parent="1">
                    <mxGeometry x="740" y="-630" width="80" height="80" as="geometry"/>
                </mxCell>
                <mxCell id="61" value="" style="whiteSpace=wrap;html=1;" vertex="1" parent="60">
                    <mxGeometry width="80" height="80" as="geometry"/>
                </mxCell>
                <mxCell id="62" value="Category - image" style="whiteSpace=wrap;html=1;" vertex="1" parent="60">
                    <mxGeometry x="10" y="10" width="60" height="50" as="geometry"/>
                </mxCell>
                <mxCell id="63" value="&lt;font style=&quot;font-size: 6px&quot;&gt;Category name&lt;/font&gt;" style="whiteSpace=wrap;html=1;align=center;" vertex="1" parent="60">
                    <mxGeometry x="10" y="60" width="60" height="20" as="geometry"/>
                </mxCell>
                <mxCell id="64" value="" style="group" vertex="1" connectable="0" parent="1">
                    <mxGeometry x="157" y="-630" width="80" height="80" as="geometry"/>
                </mxCell>
                <mxCell id="65" value="" style="whiteSpace=wrap;html=1;" vertex="1" parent="64">
                    <mxGeometry x="-1" width="80" height="80" as="geometry"/>
                </mxCell>
                <mxCell id="66" value="Category - image" style="whiteSpace=wrap;html=1;" vertex="1" parent="64">
                    <mxGeometry x="10" y="10" width="60" height="50" as="geometry"/>
                </mxCell>
                <mxCell id="67" value="&lt;font style=&quot;font-size: 6px&quot;&gt;Category name&lt;/font&gt;" style="whiteSpace=wrap;html=1;align=center;" vertex="1" parent="64">
                    <mxGeometry x="10" y="60" width="60" height="20" as="geometry"/>
                </mxCell>
                <mxCell id="68" value="" style="group" vertex="1" connectable="0" parent="1">
                    <mxGeometry x="640" y="-630" width="80" height="80" as="geometry"/>
                </mxCell>
                <mxCell id="69" value="" style="whiteSpace=wrap;html=1;" vertex="1" parent="68">
                    <mxGeometry width="80" height="80" as="geometry"/>
                </mxCell>
                <mxCell id="70" value="Category - image" style="whiteSpace=wrap;html=1;" vertex="1" parent="68">
                    <mxGeometry x="10" y="10" width="60" height="50" as="geometry"/>
                </mxCell>
                <mxCell id="71" value="&lt;font style=&quot;font-size: 6px&quot;&gt;Category name&lt;/font&gt;" style="whiteSpace=wrap;html=1;align=center;" vertex="1" parent="68">
                    <mxGeometry x="10" y="60" width="60" height="20" as="geometry"/>
                </mxCell>
                <mxCell id="72" value="" style="group" vertex="1" connectable="0" parent="1">
                    <mxGeometry x="253" y="-630" width="80" height="80" as="geometry"/>
                </mxCell>
                <mxCell id="73" value="" style="whiteSpace=wrap;html=1;" vertex="1" parent="72">
                    <mxGeometry width="80" height="80" as="geometry"/>
                </mxCell>
                <mxCell id="74" value="Category - image" style="whiteSpace=wrap;html=1;" vertex="1" parent="72">
                    <mxGeometry x="10" y="10" width="60" height="50" as="geometry"/>
                </mxCell>
                <mxCell id="75" value="&lt;font style=&quot;font-size: 6px&quot;&gt;Category name&lt;/font&gt;" style="whiteSpace=wrap;html=1;align=center;" vertex="1" parent="72">
                    <mxGeometry x="10" y="60" width="60" height="20" as="geometry"/>
                </mxCell>
                <mxCell id="76" value="" style="group" vertex="1" connectable="0" parent="1">
                    <mxGeometry x="544" y="-630" width="80" height="80" as="geometry"/>
                </mxCell>
                <mxCell id="77" value="" style="whiteSpace=wrap;html=1;" vertex="1" parent="76">
                    <mxGeometry width="80" height="80" as="geometry"/>
                </mxCell>
                <mxCell id="78" value="Category - image" style="whiteSpace=wrap;html=1;" vertex="1" parent="76">
                    <mxGeometry x="10" y="10" width="60" height="50" as="geometry"/>
                </mxCell>
                <mxCell id="79" value="&lt;font style=&quot;font-size: 6px&quot;&gt;Category name&lt;/font&gt;" style="whiteSpace=wrap;html=1;align=center;" vertex="1" parent="76">
                    <mxGeometry x="10" y="60" width="60" height="20" as="geometry"/>
                </mxCell>
                <mxCell id="80" value="" style="group" vertex="1" connectable="0" parent="1">
                    <mxGeometry x="351" y="-630" width="80" height="80" as="geometry"/>
                </mxCell>
                <mxCell id="81" value="" style="whiteSpace=wrap;html=1;" vertex="1" parent="80">
                    <mxGeometry width="80" height="80" as="geometry"/>
                </mxCell>
                <mxCell id="82" value="Category - image" style="whiteSpace=wrap;html=1;" vertex="1" parent="80">
                    <mxGeometry x="10" y="10" width="60" height="50" as="geometry"/>
                </mxCell>
                <mxCell id="83" value="&lt;font style=&quot;font-size: 6px&quot;&gt;Category name&lt;/font&gt;" style="whiteSpace=wrap;html=1;align=center;" vertex="1" parent="80">
                    <mxGeometry x="10" y="60" width="60" height="20" as="geometry"/>
                </mxCell>
                <mxCell id="84" value="" style="group" vertex="1" connectable="0" parent="1">
                    <mxGeometry x="446" y="-630" width="80" height="80" as="geometry"/>
                </mxCell>
                <mxCell id="85" value="" style="whiteSpace=wrap;html=1;" vertex="1" parent="84">
                    <mxGeometry width="80" height="80" as="geometry"/>
                </mxCell>
                <mxCell id="86" value="Category - image" style="whiteSpace=wrap;html=1;" vertex="1" parent="84">
                    <mxGeometry x="10" y="10" width="60" height="50" as="geometry"/>
                </mxCell>
                <mxCell id="87" value="&lt;font style=&quot;font-size: 6px&quot;&gt;Category name&lt;/font&gt;" style="whiteSpace=wrap;html=1;align=center;" vertex="1" parent="84">
                    <mxGeometry x="10" y="60" width="60" height="20" as="geometry"/>
                </mxCell>
                <mxCell id="88" value="&lt;font color=&quot;#000000&quot;&gt;div - categories-wrap&lt;br&gt;&lt;br&gt;align - center&lt;br&gt;position - center&lt;/font&gt;" style="whiteSpace=wrap;html=1;fillColor=#f9f7ed;strokeColor=#36393d;glass=0;rounded=0;shadow=0;sketch=0;" vertex="1" parent="1">
                    <mxGeometry x="-120" y="-625" width="120" height="70" as="geometry"/>
                </mxCell>
                <mxCell id="91" value="&lt;font color=&quot;#000000&quot;&gt;div - cat-card-wrap&lt;br&gt;&lt;span style=&quot;white-space: pre&quot;&gt;&#9;&lt;/span&gt;div - category-img&lt;br&gt;&lt;span style=&quot;white-space: pre&quot;&gt;&#9;&lt;/span&gt;&lt;span style=&quot;white-space: pre&quot;&gt;&#9;&lt;/span&gt;image&lt;br&gt;&lt;span style=&quot;white-space: pre&quot;&gt;&#9;&lt;/span&gt;div - category-name&lt;br&gt;&lt;/font&gt;" style="whiteSpace=wrap;html=1;fillColor=#f9f7ed;strokeColor=#36393d;align=left;" vertex="1" parent="1">
                    <mxGeometry x="900" y="-630" width="150" height="80" as="geometry"/>
                </mxCell>
                <mxCell id="92" value="" style="edgeStyle=orthogonalEdgeStyle;rounded=0;orthogonalLoop=1;jettySize=auto;html=1;" edge="1" parent="1" source="61" target="91">
                    <mxGeometry relative="1" as="geometry"/>
                </mxCell>
                <mxCell id="93" value="&lt;font color=&quot;#000000&quot;&gt;div - carousel-wrap&lt;br&gt;&lt;span style=&quot;white-space: pre&quot;&gt;&#9;&lt;/span&gt;div - carousel-ctrl-1&lt;br&gt;&lt;span style=&quot;white-space: pre&quot;&gt;&#9;&lt;/span&gt;div - carousel-body&lt;br&gt;&lt;span style=&quot;white-space: pre&quot;&gt;&#9;&lt;/span&gt;&lt;span style=&quot;white-space: pre&quot;&gt;&#9;&lt;/span&gt;image&lt;br&gt;&lt;span style=&quot;white-space: pre&quot;&gt;&#9;&lt;/span&gt;div - carousel-ctrl-2&lt;br&gt;&lt;span style=&quot;white-space: pre&quot;&gt;&#9;&lt;/span&gt;&lt;br&gt;&lt;/font&gt;" style="whiteSpace=wrap;html=1;fillColor=#f9f7ed;strokeColor=#36393d;align=left;" vertex="1" parent="1">
                    <mxGeometry x="-150" y="-520" width="150" height="82.5" as="geometry"/>
                </mxCell>
                <mxCell id="100" style="edgeStyle=orthogonalEdgeStyle;rounded=0;orthogonalLoop=1;jettySize=auto;html=1;entryX=0.996;entryY=0.663;entryDx=0;entryDy=0;entryPerimeter=0;" edge="1" parent="1" source="50" target="93">
                    <mxGeometry relative="1" as="geometry"/>
                </mxCell>
                <mxCell id="106" value="" style="whiteSpace=wrap;html=1;rounded=0;shadow=0;glass=0;sketch=0;fillColor=#f9f7ed;strokeColor=#36393d;" vertex="1" parent="1">
                    <mxGeometry x="53" y="-350" width="577" height="230" as="geometry"/>
                </mxCell>
                <mxCell id="107" value="" style="whiteSpace=wrap;html=1;rounded=0;shadow=0;glass=0;sketch=1;" vertex="1" parent="1">
                    <mxGeometry x="638" y="-350" width="190" height="230" as="geometry"/>
                </mxCell>
            </root>
        </mxGraphModel>
    </diagram>
</mxfile>